<?xml version="1.0" encoding="UTF-8"?>
<svg version="1.1" xmlns="http://www.w3.org/2000/svg" width="512" height="512">
<path d="M0 0 C8.05738345 5.77374001 13.13622667 12.10103363 17.25 21.1875 C17.25 21.8475 17.25 22.5075 17.25 23.1875 C17.94189423 23.1497496 18.63378845 23.11199921 19.34664917 23.07310486 C25.90546072 22.73078644 32.46174786 22.47289128 39.02750969 22.30669308 C42.40310634 22.21834491 45.7712673 22.09895289 49.14257812 21.9050293 C70.79649224 20.74956748 70.79649224 20.74956748 76.35043335 24.67025757 C79.809413 28.55191114 81.62488166 33.03975657 83.36499023 37.88607788 C84.7416189 41.46592953 86.70814585 44.63234579 88.69140625 47.90234375 C89.38732351 49.11171931 90.07943843 50.32329149 90.76757812 51.53710938 C92.16464049 53.98841933 93.56301424 56.43896769 94.96289062 58.88867188 C100.10143516 67.89037032 100.10143516 67.89037032 101.25 70.1875 C106.24781136 68.52330732 111.24410916 66.85477123 116.23828125 65.1796875 C118.34634734 64.47393793 120.45442035 63.76820907 122.5625 63.0625 C123.63306641 62.70285156 124.70363281 62.34320313 125.80664062 61.97265625 C126.83595703 61.62847656 127.86527344 61.28429687 128.92578125 60.9296875 C129.85302002 60.6188623 130.78025879 60.30803711 131.7355957 59.98779297 C133.88234379 59.30451884 136.06440203 58.73389949 138.25 58.1875 C138.745 26.0125 138.745 26.0125 139.25 -6.8125 C149.48 -6.8125 159.71 -6.8125 170.25 -6.8125 C170.25 12.9875 170.25 32.7875 170.25 53.1875 C180.15 53.1875 190.05 53.1875 200.25 53.1875 C200.25 33.3875 200.25 13.5875 200.25 -6.8125 C210.48 -6.8125 220.71 -6.8125 231.25 -6.8125 C231.58 14.6375 231.91 36.0875 232.25 58.1875 C238.85 60.1675 245.45 62.1475 252.25 64.1875 C260.875 67.5625 260.875 67.5625 264.4765625 69.0859375 C267.06242708 70.31054424 267.06242708 70.31054424 269.25 70.1875 C269.64155273 69.47432617 270.03310547 68.76115234 270.43652344 68.02636719 C271.95447541 65.26605173 273.47595693 62.50771469 274.99951172 59.75048828 C275.95665099 58.01605289 276.91005557 56.27955809 277.86328125 54.54296875 C278.84484956 52.76821392 279.82823477 50.99384213 280.86053467 49.24810791 C283.0446485 45.53206837 284.8176384 41.85395051 286.41503906 37.84667969 C288.86658809 32.21321655 291.30553017 27.0216933 296.25 23.1875 C304.93134244 20.17611789 314.4794833 21.19981167 323.49700928 21.81420898 C326.85354153 22.02081517 330.21313039 22.11054588 333.57421875 22.2109375 C340.14070958 22.43036781 346.69367898 22.76393527 353.25 23.1875 C353.55397705 22.24511475 353.8579541 21.30272949 354.17114258 20.33178711 C358.12508661 8.80817427 366.69766834 1.61507919 377.27539062 -3.59228516 C387.23587099 -8.31113152 399.47920551 -8.32845098 410.140625 -5.94140625 C424.16675142 -0.87272312 432.64297902 8.31645186 439.05078125 21.41796875 C443.1284617 30.8351526 442.92294157 44.7685478 439.625 54.375 C437.39979451 59.36414495 434.61063136 63.886546 431.25 68.1875 C430.77175781 68.80367188 430.29351562 69.41984375 429.80078125 70.0546875 C422.25373064 78.60927887 410.05633749 83.39624838 398.90234375 84.3984375 C386.62694977 84.9042382 375.44080919 80.96607838 366.1875 73.0625 C360.80061011 68.04138659 355.6108117 62.26993511 353.25 55.1875 C333.945 54.6925 333.945 54.6925 314.25 54.1875 C313.59 55.8375 312.93 57.4875 312.25 59.1875 C311.19373684 61.14262708 310.10498749 63.08039645 308.9921875 65.00390625 C308.05439453 66.64456055 308.05439453 66.64456055 307.09765625 68.31835938 C305.77892172 70.61243519 304.45597771 72.90409618 303.12890625 75.19335938 C302.50628906 76.28583984 301.88367188 77.37832031 301.2421875 78.50390625 C300.66839355 79.49849854 300.09459961 80.49309082 299.50341797 81.51782227 C297.96667228 84.29941867 297.96667228 84.29941867 298.25 88.1875 C300.11502569 89.87243319 301.88933018 91.25975061 303.9375 92.6875 C310.68194351 97.62479762 316.78236971 103.04207572 322.81445312 108.81933594 C324.06543618 110.01159938 325.33582325 111.18343722 326.609375 112.3515625 C334.55236665 119.85971884 342.87538966 129.44758662 347.79356384 139.27037048 C350.44804497 142.46806784 350.44804497 142.46806784 354.18572998 142.94699097 C355.80931967 142.98206999 357.43382186 142.98417117 359.05761719 142.96044922 C359.94577621 142.97107895 360.83393524 142.98170868 361.74900818 142.99266052 C364.68220434 143.02074672 367.61360549 143.00664329 370.546875 142.9921875 C372.58141657 143.00343546 374.61594515 143.01731514 376.65045166 143.03372192 C382.00339377 143.06981246 387.35576535 143.07012676 392.70880127 143.06304932 C398.17185725 143.06213751 403.63469816 143.09497929 409.09765625 143.125 C419.81523203 143.17891197 430.53228935 143.19191889 441.25 143.1875 C441.25 153.4175 441.25 163.6475 441.25 174.1875 C416.83 174.1875 392.41 174.1875 367.25 174.1875 C371.21 186.0675 371.21 186.0675 375.25 198.1875 C378.34706645 210.4127623 379.84076936 221.50442428 381.25 234.1875 C401.05 234.1875 420.85 234.1875 441.25 234.1875 C441.25 244.0875 441.25 253.9875 441.25 264.1875 C421.45 264.1875 401.65 264.1875 381.25 264.1875 C379.765 276.0675 379.765 276.0675 378.25 288.1875 C375.16415008 300.66506705 371.58482336 312.04999458 367.25 324.1875 C391.67 324.1875 416.09 324.1875 441.25 324.1875 C441.25 334.4175 441.25 344.6475 441.25 355.1875 C438.54570801 355.14447754 435.84141602 355.10145508 433.05517578 355.05712891 C424.09463271 354.92487295 415.13480724 354.87025527 406.17334175 354.85328102 C400.74229291 354.84063097 395.31401838 354.80229313 389.88378906 354.70410156 C384.63732591 354.61019697 379.39454831 354.58527103 374.14733505 354.60703659 C372.15140228 354.60341216 370.1553526 354.57542862 368.16012955 354.52208328 C357.80473868 353.90555901 357.80473868 353.90555901 348.47600555 357.5318222 C345.41370155 360.78004842 343.31338856 364.41697565 341.28340054 368.36609745 C339.52524193 371.46491002 337.24334819 374.04109871 334.9375 376.75 C334.43114014 377.3478833 333.92478027 377.9457666 333.40307617 378.56176758 C322.50278921 390.87549361 310.53312555 401.48206443 297.25 411.1875 C298.6833109 415.01813401 300.45226649 418.48516519 302.47265625 422.0390625 C303.09333984 423.13734375 303.71402344 424.235625 304.35351562 425.3671875 C304.99998047 426.50414062 305.64644531 427.64109375 306.3125 428.8125 C307.59742612 431.07417372 308.88008886 433.33713528 310.16015625 435.6015625 C310.72871338 436.6013916 311.29727051 437.6012207 311.88305664 438.63134766 C313.25 441.1875 313.25 441.1875 314.25 444.1875 C333.555 443.6925 333.555 443.6925 353.25 443.1875 C354.57 440.5475 355.89 437.9075 357.25 435.1875 C359.43359375 432.359375 359.43359375 432.359375 361.6875 429.9375 C362.42871094 429.12796875 363.16992188 428.3184375 363.93359375 427.484375 C372.98442804 418.50985466 383.48338491 414.35966256 396.125 413.875 C408.25892169 414.19781169 419.69263094 418.60621881 428.5625 426.9375 C437.31281712 436.3512633 441.84856199 447.12568934 441.75 459.9375 C441.74427979 460.80930908 441.73855957 461.68111816 441.73266602 462.5793457 C441.38283617 475.33223356 436.3561649 484.84614288 427.59765625 493.89453125 C417.11048438 503.64143216 404.94327172 505.77353446 391.1875 505.5 C379.2616637 504.9603694 369.05071418 498.761083 360.890625 490.2578125 C357.74760761 486.29162389 353.25 480.40499511 353.25 475.1875 C352.55810577 475.2252504 351.86621155 475.26300079 351.15335083 475.30189514 C344.59453928 475.64421356 338.03825214 475.90210872 331.47249031 476.06830692 C328.09689366 476.15665509 324.7287327 476.27604711 321.35742188 476.4699707 C299.70350776 477.62543252 299.70350776 477.62543252 294.14956665 473.70474243 C290.690587 469.82308886 288.87511834 465.33524343 287.13500977 460.48892212 C285.7583811 456.90907047 283.79185415 453.74265421 281.80859375 450.47265625 C281.11267649 449.26328069 280.42056157 448.05170851 279.73242188 446.83789062 C278.33535951 444.38658067 276.93698576 441.93603231 275.53710938 439.48632812 C270.39856484 430.48462968 270.39856484 430.48462968 269.25 428.1875 C264.25218864 429.85169268 259.25589084 431.52022877 254.26171875 433.1953125 C252.15365266 433.90106207 250.04557965 434.60679093 247.9375 435.3125 C246.86693359 435.67214844 245.79636719 436.03179687 244.69335938 436.40234375 C243.66404297 436.74652344 242.63472656 437.09070313 241.57421875 437.4453125 C240.64697998 437.7561377 239.71974121 438.06696289 238.7644043 438.38720703 C236.61765621 439.07048116 234.43559797 439.64110051 232.25 440.1875 C231.92 461.6375 231.59 483.0875 231.25 505.1875 C221.02 505.1875 210.79 505.1875 200.25 505.1875 C200.25 485.3875 200.25 465.5875 200.25 445.1875 C190.35 445.1875 180.45 445.1875 170.25 445.1875 C170.25 464.9875 170.25 484.7875 170.25 505.1875 C160.02 505.1875 149.79 505.1875 139.25 505.1875 C138.92 483.7375 138.59 462.2875 138.25 440.1875 C131.65 438.2075 125.05 436.2275 118.25 434.1875 C109.625 430.8125 109.625 430.8125 106.0234375 429.2890625 C103.43757292 428.06445576 103.43757292 428.06445576 101.25 428.1875 C100.85844727 428.90067383 100.46689453 429.61384766 100.06347656 430.34863281 C98.54552459 433.10894827 97.02404307 435.86728531 95.50048828 438.62451172 C94.54334901 440.35894711 93.58994443 442.09544191 92.63671875 443.83203125 C91.65515044 445.60678608 90.67176523 447.38115787 89.63946533 449.12689209 C87.4553515 452.84293163 85.6823616 456.52104949 84.08496094 460.52832031 C81.63341191 466.16178345 79.19446983 471.3533067 74.25 475.1875 C65.56865756 478.19888211 56.0205167 477.17518833 47.00299072 476.56079102 C43.64645847 476.35418483 40.28686961 476.26445412 36.92578125 476.1640625 C30.35929042 475.94463219 23.80632102 475.61106473 17.25 475.1875 C16.94602295 476.12988525 16.6420459 477.07227051 16.32885742 478.04321289 C12.37491339 489.56682573 3.80233166 496.75992081 -6.77539062 501.96728516 C-16.73587099 506.68613152 -28.97920551 506.70345098 -39.640625 504.31640625 C-53.66675142 499.24772312 -62.14297902 490.05854814 -68.55078125 476.95703125 C-72.6284617 467.5398474 -72.42294157 453.6064522 -69.125 444 C-66.89979451 439.01085505 -64.11063136 434.488454 -60.75 430.1875 C-60.27175781 429.57132812 -59.79351562 428.95515625 -59.30078125 428.3203125 C-51.75373064 419.76572113 -39.55633749 414.97875162 -28.40234375 413.9765625 C-16.12694977 413.4707618 -4.94080919 417.40892162 4.3125 425.3125 C9.69938989 430.33361341 14.8891883 436.10506489 17.25 443.1875 C36.555 443.6825 36.555 443.6825 56.25 444.1875 C56.91 442.5375 57.57 440.8875 58.25 439.1875 C59.30626316 437.23237292 60.39501251 435.29460355 61.5078125 433.37109375 C62.44560547 431.73043945 62.44560547 431.73043945 63.40234375 430.05664062 C64.72107828 427.76256481 66.04402229 425.47090382 67.37109375 423.18164062 C67.99371094 422.08916016 68.61632812 420.99667969 69.2578125 419.87109375 C69.83160645 418.87650146 70.40540039 417.88190918 70.99658203 416.85717773 C72.53332772 414.07558133 72.53332772 414.07558133 72.25 410.1875 C70.38497431 408.50256681 68.61066982 407.11524939 66.5625 405.6875 C59.81805649 400.75020238 53.71763029 395.33292428 47.68554688 389.55566406 C46.43456382 388.36340062 45.16417675 387.19156278 43.890625 386.0234375 C35.94763335 378.51528116 27.62461034 368.92741338 22.70643616 359.10462952 C20.05195503 355.90693216 20.05195503 355.90693216 16.31427002 355.42800903 C14.69068033 355.39293001 13.06617814 355.39082883 11.44238281 355.41455078 C10.55422379 355.40392105 9.66606476 355.39329132 8.75099182 355.38233948 C5.81779566 355.35425328 2.88639451 355.36835671 -0.046875 355.3828125 C-2.08141657 355.37156454 -4.11594515 355.35768486 -6.15045166 355.34127808 C-11.50339377 355.30518754 -16.85576535 355.30487324 -22.20880127 355.31195068 C-27.67185725 355.31286249 -33.13469816 355.28002071 -38.59765625 355.25 C-49.31523203 355.19608803 -60.03228935 355.18308111 -70.75 355.1875 C-70.75 344.9575 -70.75 334.7275 -70.75 324.1875 C-46.33 324.1875 -21.91 324.1875 3.25 324.1875 C-0.71 312.3075 -0.71 312.3075 -4.75 300.1875 C-7.84706645 287.9622377 -9.34076936 276.87057572 -10.75 264.1875 C-30.55 264.1875 -50.35 264.1875 -70.75 264.1875 C-70.75 254.2875 -70.75 244.3875 -70.75 234.1875 C-50.95 234.1875 -31.15 234.1875 -10.75 234.1875 C-9.265 222.3075 -9.265 222.3075 -7.75 210.1875 C-4.66415008 197.70993295 -1.08482336 186.32500542 3.25 174.1875 C-21.17 174.1875 -45.59 174.1875 -70.75 174.1875 C-70.75 163.9575 -70.75 153.7275 -70.75 143.1875 C-68.04570801 143.23052246 -65.34141602 143.27354492 -62.55517578 143.31787109 C-53.59463271 143.45012705 -44.63480724 143.50474473 -35.67334175 143.52171898 C-30.24229291 143.53436903 -24.81401838 143.57270687 -19.38378906 143.67089844 C-14.13732591 143.76480303 -8.89454831 143.78972897 -3.64733505 143.76796341 C-1.65140228 143.77158784 0.3446474 143.79957138 2.33987045 143.85291672 C12.69526132 144.46944099 12.69526132 144.46944099 22.02399445 140.8431778 C25.08629845 137.59495158 27.18661144 133.95802435 29.21659946 130.00890255 C30.97475807 126.91008998 33.25665181 124.33390129 35.5625 121.625 C36.06885986 121.0271167 36.57521973 120.4292334 37.09692383 119.81323242 C47.99721079 107.49950639 59.96687445 96.89293557 73.25 87.1875 C71.8166891 83.35686599 70.04773351 79.88983481 68.02734375 76.3359375 C67.40666016 75.23765625 66.78597656 74.139375 66.14648438 73.0078125 C65.50001953 71.87085937 64.85355469 70.73390625 64.1875 69.5625 C62.90257388 67.30082628 61.61991114 65.03786472 60.33984375 62.7734375 C59.77128662 61.7736084 59.20272949 60.7737793 58.61694336 59.74365234 C57.25 57.1875 57.25 57.1875 56.25 54.1875 C43.38 54.5175 30.51 54.8475 17.25 55.1875 C15.93 57.8275 14.61 60.4675 13.25 63.1875 C5.17753089 74.1340194 -4.56035479 80.80268942 -17.6875 83.875 C-31.76799707 85.31178542 -44.80602427 82.39538338 -56.00390625 73.37109375 C-64.37409658 65.50915028 -70.49008238 55.00339725 -71.21875 43.390625 C-71.25285515 41.73990275 -71.26270143 40.08852567 -71.25 38.4375 C-71.24427979 37.56569092 -71.23855957 36.69388184 -71.23266602 35.7956543 C-70.88194303 23.01020717 -65.82269192 13.66185097 -57.16796875 4.515625 C-41.65859518 -10.12582742 -17.5885844 -10.95249078 0 0 Z M65.15625 206.5078125 C58.74934448 215.51424116 55.91497806 225.59009725 56.02294922 236.53125 C56.02265717 237.32245743 56.02236511 238.11366486 56.02206421 238.92884827 C56.0234452 241.51518144 56.03894769 244.10121785 56.0546875 246.6875 C56.05842202 248.49210452 56.06126692 250.29671108 56.06326294 252.10131836 C56.07086486 256.82938324 56.09048349 261.55732342 56.1126709 266.28533936 C56.13320377 271.1185945 56.14228051 275.95186997 56.15234375 280.78515625 C56.1737329 290.25266751 56.20888669 299.72005383 56.25 309.1875 C65.82 309.1875 75.39 309.1875 85.25 309.1875 C85.25 299.2875 85.25 289.3875 85.25 279.1875 C95.48 279.1875 105.71 279.1875 116.25 279.1875 C116.25 289.0875 116.25 298.9875 116.25 309.1875 C125.82 309.1875 135.39 309.1875 145.25 309.1875 C145.34069917 298.57290585 145.41394461 287.95857294 145.45724869 277.34367752 C145.47804206 272.41370388 145.50620735 267.48401121 145.55175781 262.55419922 C145.5955119 257.78848291 145.61919901 253.0230353 145.62950897 248.25713348 C145.63684765 246.44722011 145.65117708 244.63731992 145.67292023 242.82752228 C145.8593051 226.65714302 143.58926326 214.23294574 132.18359375 201.96484375 C123.60975172 193.75910943 112.76275615 189.3845263 100.9375 188.875 C86.66263076 189.32108966 74.29200923 195.61772269 65.15625 206.5078125 Z M170.25 189.1875 C170.25 228.7875 170.25 268.3875 170.25 309.1875 C180.15 309.1875 190.05 309.1875 200.25 309.1875 C200.25 299.2875 200.25 289.3875 200.25 279.1875 C202.6425 279.22875 205.035 279.27 207.5 279.3125 C222.5811724 279.34156698 236.09854482 276.5168872 247.3125 265.75 C255.88555251 256.34986264 260.68644149 245.41753788 260.46484375 232.515625 C259.36538363 220.60147536 254.64077704 208.63371585 245.5078125 200.66796875 C223.34853161 183.0918323 199.35026253 189.1875 170.25 189.1875 Z M280.25 189.1875 C280.25 228.7875 280.25 268.3875 280.25 309.1875 C289.82 309.1875 299.39 309.1875 309.25 309.1875 C309.25 269.5875 309.25 229.9875 309.25 189.1875 C299.68 189.1875 290.11 189.1875 280.25 189.1875 Z " fill="rgba(255, 255, 255, 0.5)" transform="translate(70.75,6.8125)"/>
<path d="M0 0 C3.68640847 3.15977869 5.89977818 6.60293702 6.5090332 11.4140625 C6.57999772 14.22656435 6.53666856 17.00045714 6.4375 19.8125 C6.355 23.133125 6.2725 26.45375 6.1875 29.875 C-4.0425 29.875 -14.2725 29.875 -24.8125 29.875 C-24.874375 26.69875 -24.93625 23.5225 -25 20.25 C-25.02731201 19.2604834 -25.05462402 18.2709668 -25.08276367 17.25146484 C-25.13927936 11.23892481 -24.50291381 6.89543791 -20.34765625 2.23046875 C-13.87006147 -2.90693401 -7.61865701 -3.04746281 0 0 Z " fill="rgba(255, 255, 255, 0.5)" transform="translate(180.8125,227.125)"/>
<path d="M0 0 C2.805 -0.0825 5.61 -0.165 8.5 -0.25 C9.8003418 -0.30462402 9.8003418 -0.30462402 11.12695312 -0.36035156 C18.11069254 -0.45849115 23.17531536 1.53745442 28.4375 6.125 C31.05059486 10.93309455 31.83881221 15.95214196 30.37109375 21.28515625 C28.25818993 26.01487819 25.68685314 28.6087484 21 31 C16 32 16 32 0 32 C0 21.44 0 10.88 0 0 Z " fill="rgba(255, 255, 255, 0.5)" transform="translate(271,225)"/>
</svg>
